<svg width="39" height="39" viewBox="0 0 39 39" fill="none" xmlns="http://www.w3.org/2000/svg">
<path d="M3.65625 5.84961C3.65646 4.63834 4.63835 3.65646 5.84961 3.65625L33.1504 3.65625C34.3617 3.65646 35.3435 4.63835 35.3438 5.84961V33.1504C35.3435 34.3617 34.3617 35.3435 33.1504 35.3438H5.84961C4.63834 35.3435 3.65646 34.3617 3.65625 33.1504L3.65625 5.84961ZM21.8887 12.9512C21.4127 13.4271 21.4127 14.1979 21.8887 14.6738L26.7139 19.5L21.8887 24.3262C21.4127 24.8021 21.4127 25.5729 21.8887 26.0488C22.3646 26.5248 23.1354 26.5248 23.6113 26.0488L29.2988 20.3613C29.7748 19.8854 29.7748 19.1146 29.2988 18.6387L23.6113 12.9512C23.1354 12.4752 22.3646 12.4752 21.8887 12.9512ZM12.1387 12.9512C11.6627 13.4271 11.6627 14.1979 12.1387 14.6738L16.9639 19.5L12.1387 24.3262C11.6627 24.8021 11.6627 25.5729 12.1387 26.0488C12.6146 26.5248 13.3854 26.5248 13.8613 26.0488L19.5488 20.3613C20.0248 19.8854 20.0248 19.1146 19.5488 18.6387L13.8613 12.9512C13.3854 12.4752 12.6146 12.4752 12.1387 12.9512Z" fill="black"/>
</svg>
