<svg width="266" height="71" viewBox="0 0 266 71" fill="none" xmlns="http://www.w3.org/2000/svg">
<path d="M17.568 27.656C17.952 27.656 18.448 27.512 19.056 27.224C19.696 26.904 20.528 26.68 21.552 26.552C22.576 26.424 24.752 26.488 28.08 26.744C28.88 26.808 29.728 27.352 30.624 28.376C32 29.976 32.528 31.208 32.208 32.072C31.984 32.616 31.504 33.032 30.768 33.32C30.032 33.576 29.264 33.752 28.464 33.848C27.696 33.912 27.264 33.976 27.168 34.04C26.784 34.328 25.424 34.424 23.088 34.328C20.752 34.2 19.248 34.28 18.576 34.568C18 34.856 16.912 35.8 15.312 37.4C13.52 39.192 12.368 40.984 11.856 42.776C11.344 44.568 11.408 46.552 12.048 48.728C12.464 50.136 13.232 51.336 14.352 52.328C15.504 53.288 16.48 53.608 17.28 53.288C17.632 53.16 17.888 52.616 18.048 51.656C18.144 51.016 18.16 50.568 18.096 50.312C18.032 50.024 17.84 49.704 17.52 49.352C17.008 48.808 16.352 48.472 15.552 48.344C13.952 48.024 13.68 47.448 14.736 46.616L17.232 44.552C17.712 44.168 18.048 43.896 18.24 43.736C18.464 43.576 18.784 43.448 19.2 43.352C19.616 43.224 19.92 43.176 20.112 43.208C20.304 43.208 20.848 43.208 21.744 43.208C22.64 43.208 23.44 43.208 24.144 43.208C24.816 43.208 25.52 43.384 26.256 43.736C27.024 44.088 27.488 44.44 27.648 44.792C27.776 45.144 28.064 45.32 28.512 45.32C29.216 45.32 29.68 45.944 29.904 47.192C30.128 48.408 30 49.608 29.52 50.792C29.36 51.176 29.168 51.96 28.944 53.144C28.752 54.296 28.464 55.368 28.08 56.36C27.696 57.352 27.152 58.136 26.448 58.712C25.872 59.16 24.928 59.56 23.616 59.912C22.304 60.296 21.408 60.424 20.928 60.296C20.448 60.136 18.848 59.96 16.128 59.768C13.408 59.608 11.792 59.4 11.28 59.144C10.768 58.888 10.08 58.632 9.216 58.376C8.384 58.12 7.776 57.992 7.392 57.992C6.976 57.992 6 57.224 4.464 55.688C2.928 54.12 1.936 52.888 1.488 51.992C1.04 51.128 0.72 49.56 0.528 47.288C0.368 44.984 0.448 43.288 0.768 42.2C1.344 40.088 2.48 37.832 4.176 35.432C5.904 33.032 7.472 31.512 8.88 30.872C10.512 30.104 12.256 29.384 14.112 28.712C15.968 28.008 17.12 27.656 17.568 27.656ZM35.2136 35.576C35.9176 34.904 36.4616 34.408 36.8456 34.088C37.2616 33.736 37.7736 33.416 38.3816 33.128C38.9896 32.808 39.5656 32.68 40.1096 32.744C40.6536 32.808 41.2936 33.016 42.0296 33.368C42.7656 33.72 43.5816 34.264 44.4776 35C45.1496 35.576 45.4856 36.264 45.4856 37.064C45.4856 37.832 45.5976 38.296 45.8216 38.456C46.0456 38.584 47.3736 38.376 49.8056 37.832C52.3656 37.256 54.2696 36.984 55.5176 37.016C56.7976 37.048 57.8536 37.368 58.6856 37.976C59.0376 38.264 59.3416 38.568 59.5976 38.888C59.8536 39.208 59.9816 39.448 59.9816 39.608C59.9816 40.024 59.4856 40.536 58.4936 41.144C57.5016 41.752 56.5256 42.136 55.5656 42.296C53.3576 42.648 51.8696 43.112 51.1016 43.688C50.3336 44.232 49.4536 45.48 48.4616 47.432C47.1816 49.864 46.5416 51.784 46.5416 53.192C46.5416 54.088 46.3656 54.872 46.0136 55.544C45.7256 56.12 45.1176 56.68 44.1896 57.224C43.2616 57.768 42.6056 57.96 42.2216 57.8C41.9336 57.672 41.5176 57.736 40.9736 57.992C40.4296 58.248 39.9336 58.248 39.4856 57.992C39.0376 57.736 38.6216 57.72 38.2376 57.944C37.7896 58.2 37.0696 58.2 36.0776 57.944C35.1176 57.688 34.4616 57.352 34.1096 56.936C33.7256 56.424 33.5496 55.288 33.5816 53.528C33.6456 51.768 33.7736 49.976 33.9656 48.152C34.1576 46.328 34.1096 44.52 33.8216 42.728C33.7896 42.536 33.7416 42.28 33.6776 41.96C33.4216 40.424 33.2776 39.384 33.2456 38.84C33.2456 38.296 33.3416 37.848 33.5336 37.496C33.7256 37.144 34.1736 36.616 34.8776 35.912C35.0376 35.784 35.1496 35.672 35.2136 35.576ZM75.6848 33.176C75.8448 33.048 76.6928 33.224 78.2288 33.704C79.7968 34.184 80.8848 34.616 81.4928 35C82.0688 35.352 82.6128 35.56 83.1248 35.624C83.6688 35.656 84.0208 35.624 84.1808 35.528C84.3728 35.432 84.5808 35.512 84.8048 35.768C84.9648 36.024 85.2368 36.152 85.6208 36.152C86.0048 36.152 86.5968 36.52 87.3968 37.256C88.0688 37.928 88.4368 38.664 88.5008 39.464C88.5968 40.232 88.4368 41.432 88.0208 43.064C87.6368 44.504 87.5248 45.944 87.6848 47.384C87.8448 48.824 88.1808 49.544 88.6927 49.544C88.9488 49.544 89.4608 49.432 90.2288 49.208C91.0608 48.952 91.8608 49.064 92.6288 49.544C93.4288 50.024 93.8288 50.632 93.8288 51.368C93.8288 52.072 93.4128 52.808 92.5808 53.576C91.7808 54.344 90.8368 54.872 89.7488 55.16C89.0128 55.32 88.4368 55.512 88.0208 55.736C87.6048 55.96 87.1568 56.136 86.6768 56.264C86.2288 56.392 85.3968 56.488 84.1808 56.552C82.8048 56.616 81.8608 56.6 81.3488 56.504C80.8688 56.408 80.1168 56.088 79.0928 55.544C77.9088 54.936 77.0128 54.632 76.4048 54.632C75.7968 54.6 74.3728 54.824 72.1328 55.304C70.3728 55.688 68.6768 55.848 67.0448 55.784C65.4448 55.688 64.2288 55.384 63.3968 54.872C62.5648 54.36 62.0048 53.848 61.7168 53.336C61.4288 52.792 61.2048 51.896 61.0448 50.648C60.7568 48.696 61.1248 46.504 62.1488 44.072C63.2048 41.608 64.5648 39.704 66.2288 38.36C66.7088 37.944 67.2848 37.432 67.9568 36.824C68.6288 36.216 69.1248 35.768 69.4448 35.48C69.7968 35.192 70.0688 35.048 70.2608 35.048C70.4528 35.048 70.9968 34.824 71.8928 34.376C72.7888 33.896 73.5888 33.608 74.2928 33.512C75.1248 33.384 75.5888 33.272 75.6848 33.176ZM75.1088 46.28C75.1088 46.056 75.2048 45.816 75.3968 45.56C75.6208 45.304 75.7968 45.096 75.9248 44.936C76.0528 44.776 76.0048 44.552 75.7808 44.264C75.5568 43.944 75.0608 43.592 74.2928 43.208L72.9968 42.536L72.2768 43.928C71.7968 44.856 71.5888 45.88 71.6528 47C71.7168 47.8 71.7968 48.28 71.8928 48.44C72.0208 48.568 72.3408 48.616 72.8528 48.584C73.3968 48.552 73.9088 48.296 74.3888 47.816C74.8688 47.304 75.1088 46.792 75.1088 46.28ZM117.353 24.824C118.057 24.632 118.793 24.248 119.561 23.672C120.361 23.096 120.937 22.856 121.289 22.952C123.113 23.496 124.345 24.216 124.985 25.112C125.017 25.144 125.065 25.208 125.129 25.304C125.417 25.688 125.545 26.056 125.513 26.408C125.513 26.728 125.321 27.688 124.937 29.288C124.201 32.52 123.513 35.736 122.873 38.936C122.617 40.152 122.457 41.672 122.393 43.496C122.329 45.32 122.393 46.408 122.585 46.76C122.777 47.08 123.017 47.224 123.305 47.192C123.593 47.16 124.249 46.92 125.273 46.472C126.361 46.024 126.953 46.04 127.049 46.52C127.081 46.616 127.081 46.728 127.049 46.856C126.985 47.048 127.161 47.496 127.577 48.2C127.993 48.872 128.105 49.4 127.913 49.784L127.097 51.464C126.265 53.224 124.473 54.136 121.721 54.2C119.801 54.264 118.201 54.232 116.921 54.104C115.673 53.976 114.873 53.848 114.521 53.72C114.201 53.592 113.817 53.56 113.369 53.624C112.953 53.656 112.345 53.864 111.545 54.248C109.497 55.24 107.529 55.8 105.641 55.928C103.753 56.056 102.185 55.88 100.937 55.4C99.7205 54.888 98.6325 54.248 97.6725 53.48C96.7125 52.68 96.0085 51.976 95.5605 51.368C95.1445 50.76 94.9045 50.328 94.8405 50.072C94.6805 49.496 94.9205 48.264 95.5605 46.376C96.2005 44.456 96.8405 43.016 97.4805 42.056C98.2165 40.936 99.2405 39.784 100.553 38.6C101.897 37.416 102.809 36.824 103.289 36.824C103.673 36.824 104.169 36.584 104.777 36.104C105.385 35.592 106.121 35.192 106.984 34.904C107.433 34.744 107.945 34.552 108.521 34.328C109.097 34.104 109.465 33.96 109.625 33.896C109.817 33.832 110.073 33.768 110.393 33.704C110.745 33.64 111.145 33.592 111.593 33.56L113.177 33.464L113.657 31.544C113.817 30.872 113.961 30.152 114.089 29.384C114.249 28.616 114.361 28.072 114.425 27.752C114.521 27.4 114.617 27.032 114.713 26.648C114.841 26.264 115.001 25.992 115.193 25.832C115.417 25.64 115.689 25.464 116.009 25.304C116.329 25.112 116.777 24.952 117.353 24.824ZM106.889 48.056C107.273 47.992 107.833 47.256 108.569 45.848C109.497 44.152 109.625 43.272 108.953 43.208C108.729 43.208 108.409 43.336 107.993 43.592C107.289 43.976 106.777 44.888 106.457 46.328C106.201 47.544 106.345 48.12 106.889 48.056ZM141.155 31.16C142.051 30.744 143.187 30.568 144.563 30.632C145.971 30.696 147.123 31 148.019 31.544C148.947 32.088 149.987 33.08 151.139 34.52C152.291 35.928 152.947 37 153.107 37.736C153.267 38.6 153.283 39.8 153.155 41.336C153.059 42.232 152.931 42.92 152.771 43.4C152.611 43.88 152.323 44.36 151.907 44.84C151.427 45.448 150.867 45.944 150.227 46.328C149.619 46.712 148.339 47.384 146.387 48.344C145.779 48.632 145.267 48.904 144.851 49.16C144.435 49.416 144.179 49.592 144.083 49.688C143.987 49.752 143.875 49.8 143.747 49.832C143.651 49.864 143.459 49.88 143.171 49.88C142.531 49.88 142.051 50.072 141.731 50.456C141.443 50.84 141.379 51.32 141.539 51.896C141.667 52.376 141.827 52.664 142.019 52.76C142.243 52.824 142.803 52.84 143.699 52.808C144.659 52.776 145.763 52.52 147.011 52.04C148.291 51.528 149.427 50.936 150.419 50.264C150.739 50.008 151.011 49.848 151.235 49.784C151.459 49.72 151.619 49.704 151.715 49.736C151.843 49.736 152.115 49.848 152.531 50.072C152.979 50.264 153.363 50.424 153.683 50.552C154.323 50.808 154.643 51.192 154.643 51.704C154.643 52.152 154.147 52.968 153.155 54.152C152.163 55.304 151.251 56.152 150.419 56.696C148.723 57.784 147.331 58.552 146.243 59C145.187 59.48 143.891 59.912 142.355 60.296C141.907 60.424 141.523 60.568 141.203 60.728C140.915 60.92 140.659 61 140.435 60.968C140.243 60.968 139.507 60.968 138.227 60.968C135.891 60.84 133.971 60.232 132.467 59.144C130.995 58.056 130.019 56.52 129.539 54.536C128.931 52.04 128.835 49.368 129.251 46.52C129.699 43.64 130.547 41.32 131.795 39.56C132.499 38.568 134.019 37.032 136.355 34.952C138.691 32.84 140.291 31.576 141.155 31.16ZM171.861 24.296C172.693 23.72 173.333 23.368 173.781 23.24C174.261 23.112 175.205 23.048 176.613 23.048C178.629 23.048 180.325 23.368 181.701 24.008C183.109 24.648 183.813 25.448 183.813 26.408C183.813 26.888 183.397 27.448 182.565 28.088C181.765 28.728 180.965 29.112 180.165 29.24C179.461 29.368 178.965 29.56 178.677 29.816C178.421 30.04 178.085 30.152 177.669 30.152C177.061 30.152 176.341 30.536 175.509 31.304C174.677 32.072 174.165 32.84 173.973 33.608C173.717 34.472 173.589 35.512 173.589 36.728C173.589 37.944 173.717 38.632 173.973 38.792C174.261 38.984 174.949 39.112 176.037 39.176C176.965 39.24 178.069 39.56 179.349 40.136C180.629 40.712 181.349 41.208 181.509 41.624C181.637 42.008 181.333 42.536 180.597 43.208C179.893 43.88 179.109 44.344 178.245 44.6C177.701 44.76 177.189 44.984 176.709 45.272C176.261 45.528 175.813 45.656 175.365 45.656C174.757 45.656 174.229 45.816 173.781 46.136C173.429 46.392 173.253 46.776 173.253 47.288C173.285 47.768 173.525 49.176 173.973 51.512L174.453 54.056L173.253 55.496C172.485 56.456 171.781 56.936 171.141 56.936C170.789 56.936 170.501 56.984 170.277 57.08C170.085 57.176 169.925 57.272 169.797 57.368C169.669 57.464 169.317 57.576 168.741 57.704C168.197 57.8 167.429 57.88 166.437 57.944C165.253 58.008 164.437 58.008 163.989 57.944C163.541 57.88 163.237 57.736 163.077 57.512C162.821 57.224 162.597 55.608 162.405 52.664C162.245 49.688 162.069 48.088 161.877 47.864C161.717 47.672 161.285 47.576 160.581 47.576C159.877 47.544 159.157 47.544 158.421 47.576C157.717 47.608 157.061 47.48 156.453 47.192C155.877 46.904 155.589 46.424 155.589 45.752C155.589 45.112 156.293 44.088 157.701 42.68C158.821 41.528 159.573 40.792 159.957 40.472C160.373 40.12 160.933 39.704 161.637 39.224C162.085 38.936 162.405 38.488 162.597 37.88C162.789 37.272 162.997 36.424 163.221 35.336C163.477 34.248 163.813 33.256 164.229 32.36C164.613 31.528 165.557 30.184 167.061 28.328C168.565 26.472 169.477 25.544 169.797 25.544C169.957 25.544 170.645 25.128 171.861 24.296ZM190.121 26.552C191.113 25.624 191.961 24.968 192.665 24.584C193.369 24.168 193.833 23.944 194.057 23.912C194.313 23.88 194.457 23.848 194.489 23.816C194.489 23.784 195.017 23.96 196.073 24.344C197.001 24.664 197.929 25.352 198.857 26.408C199.817 27.432 200.297 28.296 200.297 29C200.297 29.448 200.025 30.728 199.481 32.84C198.969 34.952 198.473 37.368 197.993 40.088C197.545 42.808 197.385 45.224 197.513 47.336C197.577 48.488 197.689 49.368 197.849 49.976C198.009 50.552 198.329 51.272 198.809 52.136C199.577 53.48 199.929 54.392 199.865 54.872C199.769 55.544 198.921 56.072 197.321 56.456C195.753 56.84 193.737 57.016 191.273 56.984C190.121 56.952 189.065 56.6 188.105 55.928C187.497 55.48 187.049 55.032 186.761 54.584C186.505 54.104 186.169 53.176 185.753 51.8C185.209 50.04 184.905 48.488 184.841 47.144C184.809 45.768 184.905 44.584 185.129 43.592C185.353 42.568 185.721 40.856 186.233 38.456C186.777 36.024 187.225 33.48 187.577 30.824C187.737 29.736 187.929 29 188.153 28.616C188.377 28.232 189.033 27.544 190.121 26.552ZM214.062 32.12C214.926 31.768 215.454 31.608 215.646 31.64C215.87 31.64 216.894 32.04 218.718 32.84C219.102 33 219.39 33.16 219.582 33.32C219.774 33.48 219.902 33.64 219.966 33.8C220.03 33.928 220.254 34.152 220.638 34.472C221.022 34.792 221.566 35.176 222.27 35.624C223.742 36.552 224.75 37.304 225.294 37.88C225.838 38.424 226.35 39.224 226.83 40.28C227.598 42.008 227.838 43.608 227.55 45.08C227.294 46.52 226.462 48.056 225.054 49.688C223.614 51.352 222.174 52.872 220.734 54.248C219.294 55.624 218.19 56.504 217.422 56.888C216.142 57.56 214.174 58.008 211.518 58.232C208.894 58.456 207.118 58.328 206.19 57.848C205.55 57.496 204.718 56.76 203.694 55.64C202.67 54.488 201.998 53.544 201.678 52.808C201.518 52.456 201.39 51.768 201.294 50.744C201.198 49.688 201.198 48.44 201.294 47C201.422 45.528 201.71 44.312 202.158 43.352C202.766 42.04 203.598 40.664 204.654 39.224C205.742 37.784 206.83 36.568 207.918 35.576C208.814 34.744 209.598 34.136 210.27 33.752C210.974 33.368 212.238 32.824 214.062 32.12ZM216.318 41.912C215.806 41.496 215.214 41.272 214.542 41.24C213.87 41.176 213.31 41.336 212.862 41.72C212.51 41.976 212.254 42.312 212.094 42.728C211.966 43.112 211.854 43.752 211.758 44.648C211.662 45.608 211.646 46.344 211.71 46.856C211.806 47.336 212.03 47.976 212.382 48.776C212.83 49.768 213.326 50.456 213.87 50.84C214.446 51.192 214.974 51.256 215.454 51.032C215.934 50.808 216.382 50.472 216.798 50.024C217.214 49.544 217.534 48.984 217.758 48.344C218.014 47.704 218.142 47.144 218.142 46.664C218.11 45.864 217.902 44.968 217.518 43.976C217.166 42.952 216.766 42.264 216.318 41.912ZM249.404 55.88C249.02 55.88 248.332 55.416 247.34 54.488C246.348 53.528 245.804 53.048 245.708 53.048C245.58 53.048 245.084 53.384 244.22 54.056C242.524 55.368 240.892 56.344 239.324 56.984C237.788 57.624 236.732 57.768 236.156 57.416C235.9 57.288 235.26 55.944 234.236 53.384C233.244 50.792 232.22 48.12 231.164 45.368C230.108 42.616 229.484 41.064 229.292 40.712C228.748 39.816 228.572 38.952 228.764 38.12C228.956 37.288 229.58 36.2 230.636 34.856C231.724 33.512 232.636 32.664 233.372 32.312C234.108 31.96 234.988 31.976 236.012 32.36C236.492 32.52 236.892 32.792 237.212 33.176C237.532 33.528 237.916 34.152 238.364 35.048C238.876 36.04 239.292 36.984 239.612 37.88C239.964 38.744 240.22 39.352 240.38 39.704C240.54 40.024 240.748 40.296 241.004 40.52C241.324 40.808 241.548 40.952 241.676 40.952C241.804 40.952 242.044 40.76 242.396 40.376C242.908 39.896 243.164 39.496 243.164 39.176C243.164 38.824 243.612 38.248 244.508 37.448C245.756 36.328 247.02 35.816 248.3 35.912C249.612 35.976 250.508 36.616 250.988 37.832C251.788 39.88 252.556 41.528 253.292 42.776C253.644 43.384 253.9 43.768 254.06 43.928C254.252 44.056 254.444 44.04 254.635 43.88C254.988 43.592 255.164 42.248 255.164 39.848C255.164 38.504 255.196 37.56 255.26 37.016C255.324 36.472 255.404 36.088 255.5 35.864C255.628 35.64 255.916 35.24 256.364 34.664C256.812 34.056 257.276 33.352 257.756 32.552C258.716 30.856 259.676 29.896 260.636 29.672C261.212 29.512 261.884 29.512 262.652 29.672C263.452 29.8 264.028 30.024 264.38 30.344L264.428 30.392C264.748 30.68 264.908 31 264.908 31.352C264.94 31.704 264.86 32.76 264.668 34.52C264.476 36.536 264.3 38.344 264.14 39.944C263.82 43.464 263.404 45.896 262.892 47.24C262.412 48.552 261.388 49.928 259.82 51.368C258.86 52.264 258.012 52.904 257.276 53.288C256.572 53.672 255.996 53.928 255.548 54.056C255.132 54.184 254.78 54.376 254.492 54.632C254.204 54.888 253.468 55.16 252.284 55.448C251.132 55.736 250.172 55.88 249.404 55.88Z" fill="black"/>
<g clipPath="url(#clip0_376_269)">
<path d="M219.487 9.42257C219.796 8.93228 220.866 7.29799 222.784 5.66637C224.532 4.17943 226.106 3.44266 227.474 2.80234C229.782 1.71996 231.679 1.24574 232.864 0.956393C233.76 0.736701 235.63 0.318751 238.064 0.12853C239.411 0.0213629 241.022 -0.0965205 243.135 0.12853C244.68 0.291959 246.321 0.479501 248.271 1.33684C249.082 1.69316 250.166 2.18077 251.316 3.18278C251.662 3.48553 253.469 5.10375 254.421 7.95706C254.576 8.41788 255.088 10.0549 254.992 12.2223C254.896 14.3469 254.266 15.9008 253.914 16.7421C253.645 17.3904 253.186 18.3576 252.455 19.4159C251.67 20.5518 250.051 22.5559 247.383 23.9999C245.217 25.1734 243.266 25.4869 241.423 25.7816C238.939 26.1808 238.176 25.9021 235.969 26.5451C234.032 27.1104 232.629 27.9035 232.229 28.1366C230.348 29.2323 227.955 31.1426 226.237 31.8124C226.237 31.8124 225.409 32.1366 224.508 31.9249C224.273 31.8687 224.033 31.7829 223.953 31.582C223.814 31.231 224.334 30.8774 225.095 29.8405C225.7 29.0153 226.023 28.3509 226.132 28.1125C226.29 27.7722 226.389 27.4962 226.583 26.9417C226.81 26.304 226.845 26.1111 226.837 25.8914C226.831 25.7119 226.818 25.3047 226.551 24.9832C226.17 24.5224 225.505 24.5224 225.063 24.5224C224.764 24.5224 224.396 24.6081 223.667 24.7769C222.683 25.0073 222.661 25.0528 222.208 25.1279C221.706 25.2109 221.221 25.2913 220.607 25.2082C220.252 25.16 219.575 25.0609 218.91 24.5706C218.262 24.091 217.974 23.4962 217.768 23.0756C217.502 22.5264 217.414 22.087 217.277 21.4038C217.117 20.6027 217.075 19.9919 217.04 19.4293C217.008 18.9229 216.955 18.0468 217.04 16.8975C217.069 16.5036 217.149 15.6061 217.373 14.5746C217.95 11.9222 219.129 9.97716 219.481 9.41721L219.487 9.42257Z" fill="#7FA487"/>
<path d="M228.304 15.1213C229.358 15.1213 230.212 14.2636 230.212 13.2056C230.212 12.1477 229.358 11.29 228.304 11.29C227.251 11.29 226.397 12.1477 226.397 13.2056C226.397 14.2636 227.251 15.1213 228.304 15.1213Z" fill="#314855"/>
<path d="M236.233 15.1213C237.287 15.1213 238.141 14.2636 238.141 13.2056C238.141 12.1477 237.287 11.29 236.233 11.29C235.18 11.29 234.326 12.1477 234.326 13.2056C234.326 14.2636 235.18 15.1213 236.233 15.1213Z" fill="#314855"/>
<path d="M244.165 15.1213C245.219 15.1213 246.073 14.2636 246.073 13.2056C246.073 12.1477 245.219 11.29 244.165 11.29C243.112 11.29 242.258 12.1477 242.258 13.2056C242.258 14.2636 243.112 15.1213 244.165 15.1213Z" fill="#314855"/>
</g>
<defs>
<clipPath id="clip0_376_269">
<rect width="38" height="32" fill="white" transform="translate(217)"/>
</clipPath>
</defs>
</svg>
