<?xml version="1.0" encoding="UTF-8"?>
<svg id="Layer_2" data-name="Layer 2" xmlns="http://www.w3.org/2000/svg" viewBox="0 0 92.89 51.47">
  <g id="Elements">
    <g>
      <path d="M92.06,23.74c-.77,1.22-1.9,2.24-2.12,3.77-1.68,1.45-2.1,3.67-3.3,5.4-.5.72.08,1.58-.68,2.25-.53.47-.68,1.36-1.03,2.04-.2.4-.68.76-.67,1.13.02,1.81-1.27,3.06-1.88,4.59-.2.51-.45,1.02-.76,1.46-.39.55-1.02.87-1.05,1.73-.02.48-.51.13-.69-.11-.21-.28-.31-.29-.52-.06-.4.43-.79.93-1.29,1.19-.76.38-1.11-.6-1.82-.75-.82-.18-1.71-.69-2.26-1.33-.58-.69-1.43-.65-2.05-1.19-.55-.48-1.37-.67-2.07-.98-.71-.31-1.29-.89-2.21-.76-.34.05-.72-.53-1.13-.64-.53-.15-1.07.02-1.64-.39-1.11-.79-2.38-1.35-3.83-1.07-.5.09-.86-.11-1.24-.46-.68-.61-1.91.16-2.48-.95-.07-.15-.67-.02-1.03-.02-.92,0-1.8-.05-2.6.66-.28.24-1.09.22-1.61-.29-.65-.66-1.15-1.23-.17-2,.05-.04-.05-.37-.16-.48-.51-.51-.54-1,0-1.48.34-.3.55-.78,1.14-.7.6.08,1.13-.02,1.56-.55.96-1.22,2.14-1.2,3.39-.47.19.11.38.27.58.31,1,.2,2.05-.3,3.05.42.9.65,2.04.2,3.08.3.24.02.6-.1.69.02,1.04,1.25,2.42.53,3.64.67.07,0,.19-.14.24-.25.03-.06-.03-.17-.07-.25-.83-1.34-2.57-1.56-3.47-2.79-.52-.7-1.28-.92-1.99-1.24-.95-.43-1.88-.91-2.46-1.79-.56-.84-1.76-.62-2.25-1.5-.59,0-1.19-.03-1.78,0-.73.03-.99-.93-1.85-.76-.63.12-1.35.22-1.94-.47-.51-.6-1.69.23-2.16-.78-.96.1-1.49-1.25-2.49-.83-1.11.46-1.61-.83-2.57-.75-.8.07-1.67.19-2.21-.69-.82.03-1.55-.02-2.24-.68-.31-.3-1.14-.04-1.74-.05-.91-.02-1.8.09-2.6-.66-.32-.3-1.14-.06-1.74-.05-.43,0-.84.66-.6,1.01.32.47.67.83.78,1.48.08.45.55.89.73,1.47.22.72.98,1.28,1.17,2,.23.88.13,1.86.16,2.79.02.59.1,1.21-.02,1.78-.11.52-.56.98-.66,1.5-.1.54-.1,1.09.37,1.63.49.56.42.67.09,1.19-1.3,2.09-1.86,4.65-4.02,6.2-.12.08.06.54-.06.67-.8.87-1.65,1.7-2.48,2.55-1.36-.23-1.6,1.55-2.94,1.58-.67.02-1.28,1.01-1.99,1.12-.75.12-1.16.94-1.79.83-.95-.17-1.44.62-2.21.75-.77.13-1.28,1.05-2.2.72-1.02-.37-1.56.89-2.56.73-1.45-.24-3.06.52-4.34-.73-1.44.2-2.6-.51-3.82-1.11-1.38-.66-2.62-1.37-2.97-3.01-.73-.59-.51-1.79-1.51-2.24-.69-.31-.35-1.27-.98-1.75-.25-.19-.16-.87-.17-1.32-.02-.95.11-1.92-.04-2.85-.18-1.13.52-1.95.74-2.92.15-.65-.29-1.44.41-1.97.68-.52.04-1.34.49-1.94.87-1.15,1.32-2.54,1.95-3.83.61-1.24,2.12-1.8,2.37-3.3.05-.29.49-.5.73-.76.48-.54.97-.99,1.8-.85.71.12,1.36.02,1.88-.65.51-.65,1.16-1.19,1.75-1.78,1.11-1.09,1.41-1.25,3.52-1.84.21-.06.53-.05.62-.19.62-.9,1.75-1.08,2.48-1.78.63-.61,1.22-1.02,2.14-.91.39.05.78-.76.58-1.04-.68-.92-1.83-1.42-2.17-2.67-.34-1.23-2.14-1.5-2.16-3.04,0-.13-.56-.31-.88-.35-.46-.05-.9,0-1.28-.4-.33-.36-.41-.56-.08-1.27.3-.66.19-.86-.61-1.21-.3-.13-.56-.36-.86-.51-.58-.31-.6.55-1.05.52-.22-.02-.57.01-.65-.11-.59-.87-1.48-.59-2.26-.58-.83,0-1.24-.92-2.21-.77-1.28.19-2.61.03-3.92.05-.33,0-.79,0-.97.2-.78.87-1.77.4-2.66.48-.11,0-.38-.34-.36-.5.04-.31.21-.61.37-.89.03-.05.23,0,.34,0,1.25-.13,1.28-.13,1.39-1.3.05-.56.2-.87.81-.84.36.02.72-.03,1.07,0,.77.08.97-.27,1.03-1.01.03-.46.64-.62,1.12-.31.38.25.63.66,1.19.61.59-.05,1.21.08,1.78-.03,1.22-.23,2.18.57,3.28.69.65.07,1.03.39,1.52.68.35.21.87.13,1.2.54.37.45,1.1.15,1.49.74.29.43.82.31,1.19-.1.48-.52.95-.58,1.47-.05.57.57,1.05,1.31,2.05,1.09.19-.04.48.05.62.18.61.56,1.16,1.19,1.78,1.75.69.63,1.12,1.39,1.55,2.21.37.7,1.36,1.1,1.66,1.82.33.79.35,1.7.85,2.51.25.4.27.81.86.8,1.66-.02,3.33-.01,4.99,0,.59,0,1.39-.19,1.71.11.6.57,1.22.71,1.91.58.82-.16,1.22.56,1.85.71.99.24,2.07-.29,3.05.41.93.66,2.09.46,3.06.27,1.3-.26,2.07,1.03,3.29.81.25-.05.59.27.86.46.75.51,1.94-.18,2.49.93.05.1.45,0,.69.01.68.03,1.33-.11,1.94.53.51.54,1.68-.2,2.15.79.78-.13,1.14.75,1.8.79.72.04,1.42,0,1.85.72.88-.19,1.15.68,1.73.99,1.07.57,2.07,1.37,3.39,1.28.75.73,1.73.96,2.66,1.34.83.34,1.11,1.45,2.26,1.5.44.02.84.78,1.26,1.2.92.93,1.84,1.86,2.78,2.77.45.44.51-.2.75-.33.2-.11.51-.37.48-.48-.2-.83.57-1.21.81-1.82.69-1.75,1.56-3.45,2.81-4.9.11-1.07,1.2-1.38,1.69-2.15.18-.28.28-.6.45-.88.81-1.38,1.82-2.4,3.63-2.07.58.11,1.07-.07,1.59-.49.36-.28,1.28-.35,1.6-.09.97.79,2.16,1.58,1.74,3.17-.03.11,0,.24,0,.64.2,1.01-.05,2.25-.73,3.34ZM30.63,26.28c.02-.56-.74-1.04-.7-1.84.02-.48-.43-.98-.66-1.48-.3-.65-.66-.89-1.21-.78-.22.04-.49,0-.67.11-1.6,1-3.23,1.9-5.11,2.3-.37.08-.71.55-1.23.45-.68,1.17-2.1,1.35-2.99,2.25-.54.55-.91,1.45-1.93,1.32-.34.56-.63,1.15-1.04,1.66-.44.55-1.35.98-1.41,1.53-.09.77-.76,1.11-.86,1.81-.07.52-.44.99-.68,1.49s-.61.97-.68,1.49c-.08.6-.23,1.05-.58,1.56-.36.54-.38,1.32.2,1.9.84.83,1.6,1.79,2.54,2.49,1.1.81,2.37,1.35,3.82,1.06.69-1.1,2.28-.32,2.97-1.43.96.17,1.48-1.28,2.55-.71.71-.54,1.6-.74,2.33-1.29.4-.3,1.05-.31,1.44-.8.8-1,1.99-1.65,2.54-2.87.09-.2.12-.44.23-.61.37-.57,1.26-.81,1.18-1.64-.11-1.19,1.17-2.02.74-3.27-.07-.21-.01-.47-.01-.96.67-1.24-.83-2.31-.77-3.73Z"/>
      <path d="M.7,4.71c0-.22.05-.46-.02-.66-.05-.15-.26-.25-.4-.38-.1.18-.25.35-.28.54-.03.19.06.41.13.6.03.09.14.18.24.22.33.13.44,0,.33-.33Z"/>
      <path d="M1.53,5.75c.18-.1.36-.2.54-.3-.23-.14-.46-.38-.7-.39-.2,0-.75-.36-.64.3.02.15.3.28.48.38.08.05.22,0,.33,0Z"/>
      <path d="M3.51,2.08c.13.31.2.51.3.7.02.03.18.02.23-.02.36-.27.36-1.02-.02-1.15-.12-.04-.36.32-.51.47Z"/>
      <path d="M2.38,2.8c.15-.08.3-.17.46-.25-.08-.08-.18-.24-.23-.22-.17.04-.32.14-.48.22.08.08.16.16.25.25Z"/>
    </g>
  </g>
</svg>