<?xml version="1.0" encoding="UTF-8"?>
<svg id="Layer_2" data-name="Layer 2" xmlns="http://www.w3.org/2000/svg" viewBox="0 0 60.05 39.36">
  <g id="Elements">
    <path d="M44.3,39.29c-.83,0-1.66,0-2.5,0-.47,0-.95-.01-1.42-.02-.47-1.16-1.72-.38-2.45-1-1.02-.87-2.53-.91-3.44-2.02-.86-1.06-2.1-1.79-2.56-3.23-.22-.7-1.43-.98-1.17-2,.22-.84-.94-1.11-.71-1.84.31-.96-.8-1.36-.74-2.21.05-.71.05-1.43,0-2.14-.08-1.24-1.15-2.28-.73-3.63.03-.11-.25-.34-.42-.47-.07-.06-.23,0-.35,0-5.47,0-10.93,0-16.4.01-.2,0-.39.18-.59.28.14.14.29.41.41.4.55-.05.81.45,1.2.57,1.27.41,2.42,1.09,3.58,1.67,1.11.55,1.89,1.75,2.83,2.65.41.39.71.95,1.44.87.14-.02.46.29.45.42-.09,1.04,1.14,1.25,1.29,1.96.21.99.04,2.06-.01,3.09,0,.08-.41.23-.6.2-.81-.16-1.29.29-1.83.8-.95.91-1.65.88-2.67.01-.43-.37-.74-.96-1.45-.8-.86-.74-1.91-1.18-2.8-1.9-.71-.57-1.95-.74-2.57-1.39-.83-.87-2.15-.94-2.78-1.96-.41-.66-1.33-.31-1.75-.99-.37-.6-1.18-.69-1.66-1.07-1.3-1.02-2.4-2.29-3.56-3.48-.14-.15-.25-.39-.27-.59-.04-.47-.06-.96,0-1.42.12-.92-.37-1.92.23-2.75.53-.73.57-1.76,1.48-2.26.23-.13.24-.61.42-.87.7-1.02,1.02-2.34,2.12-3.03.77-.49.54-1.53,1.25-1.99.83-.53.8-1.61,1.5-2.24.8-.71,1.52-1.5,2.28-2.26.67-.67,1.34-1.34,2.02-2.02.08-.08.18-.16.25-.25.18-.24.29-.17.52.08.56.62,1.2,1.16,1.75,1.78.44.5,1.07.82,1.2,1.65.19,1.26-.42,2.26-.96,3.18-.58.99-1.56,1.79-2.48,2.53-.76.62-.75,1.67-1.49,2.26-.03.02,0,.21.05.24.2.09.45.25.62.19.51-.18.98-.56,1.5-.67.57-.12,1.18-.03,1.78-.03,1.78,0,3.57-.02,5.35.01.62,0,1.1-.11,1.56-.58.36-.36.84-.17,1.2.22.11.11.45.21.48.16.61-.87,1.51-.47,2.29-.52.95-.06,1.9,0,2.85-.02.6,0,.77-.19.78-.86,0-1.43-.02-2.85.01-4.28.02-.78-.3-1.67.58-2.27.13-.09.11-.42.12-.65.05-.81-.05-1.67.18-2.43.26-.83,1.31-.8,1.93-1.28.37-.29.65-.69,1.03-.98.15-.12.53-.19.65-.09.63.52,1.22,1.09,1.8,1.67.04.04-.14.35-.27.48-.68.68.12,1.96-1,2.44.18.4.74.54.7,1.12-.05.83-.07,1.67,0,2.49.13,1.51-.36,3.05.25,4.53,1.41.03,2.83.17,4.24.06,1.01-.08,1.51,1.01,2.57.78.79-.17,1.81-.31,2.45.04.75.41,1.4.75,2.24.64.46,1.21,1.81.29,2.43,1,.69.78,1.64.12,2.3.47.82.43,1.75.49,2.5.85.91.44,1.55,1.44,2.31,2.19.27,1.68,1.87,2.31,2.77,3.49.34.45.75.77.98,1.38.53,1.42.66,1.37.66,2.22,0,.71-.04,1.43.01,2.14.05.64-.15,1.11-.63,1.53-.62.55-1.16,1.19-1.78,1.75-.4.35-.47.75-.47,1.24,0,.32-.08.75-.29.93-.95.81-1.54,2.04-2.96,2.34-.49.1-.91.75-1.26,1.22-.45.6-1.22.63-1.7,1.04-.52.44-1.01.46-1.6.49-.78.04-1.25.97-2.21.73-.67-.16-1.42-.03-2.13-.03h-.71ZM34.33,22.43c-.18,1.03.18,1.93,1.1,2.65.22.17.27.6.32.92.09.56,0,1.2.23,1.68.2.4.43.73.54,1.21.08.39.63.67.92,1.04.2.25.41.57.44.87.08.68.56.55,1,.67.41.11.73.57,1.14.66.76.17,1.25,1.05,2.2.77.22-.06.54.36.85.47.3.11.83.26.93.13.51-.68,1.18-.62,1.89-.65.67-.03,1.31.02,2.02-.26,1.28-.51,2-1.85,3.41-2.07.17-1.43,1.49-2,2.25-2.99.12-.15.15-.56.04-.67-1.04-1.05-1.84-2.4-3.42-2.8-.49-.69-1.55-.43-1.99-1.2-.96.16-1.47-1.28-2.55-.71-.68-.38-1.32-.98-2.19-.7-1.03.33-1.49-1.02-2.56-.76-.78.19-1.65.06-2.48.03-.81-.02-1.62-.07-2.43-.15-.27-.03-.33-.69-.74-.36-.35.28-.68.65-.87,1.05-.14.29-.03.7-.03,1.16Z"/>
  </g>
</svg>