<?xml version="1.0" encoding="UTF-8"?>
<svg id="Layer_2" data-name="Layer 2" xmlns="http://www.w3.org/2000/svg" viewBox="0 0 40 103.55">
  <g id="Elements">
    <g>
      <path d="M22.49,4.12c-.32.38-.28.71.12,1-.44.42-.03.9-.09,1.34-.08.64,1.06.85.45,1.8-.37.57.09,1.62-.17,2.32-.24.62-.07,1.14-.07,1.7,0,.78.5,1.62-.23,2.33.28.88-.14,1.93.62,2.67.3.3.32.54.16.9-1.06,2.4-1,2.4-.86,4.21.11,1.36.65,2.69.06,4.12-.23.57-.01,1.42.79,1.77,1.49.64,1.63,2.43,2.83,3.32-.16.68.6.96.67,1.5.07.5.42.79.61,1.18.38.79-.01,1.88.88,2.54.07.05.04.23.05.35.06.47.05.96.19,1.41.25.86-.15,1.88.77,2.61.27.21.37,1.04.17,1.35-.6.92-.21,1.82-.13,2.71.1,1.18.13,2.4.46,3.53.32,1.1-.49,2.04-.17,3.05.37,1.16-.32,2.27-.09,3.39.15.73-.16,1.33-.26,1.99-.08.57.1,1.17.16,1.76-.75.46-.03,1.36-.56,1.91-.13.13-.14.43-.11.64.08.8.31,1.6-.23,2.33.36.72-.55,1.27-.27,1.98.32.82-.08,1.56-.22,2.33-.35,1.84-.6,3.71-1.1,5.51-.17.62-.84,1.12-.54,1.9-.7.58-.24,1.31-.28,1.98-.04.55-.3,1.09-.27,1.62.04.55-.34.84-.47,1.25-.39,1.26-.66,2.55-.95,3.84,0,.02.45.18.47.15.33-.63,1.03-.47,1.48-.75.47-.29.76-.9,1.12-1.37,1.03-1.31,2.07-2.61,3.07-3.94.85-1.12,1.57-2.4,3.33-2.19.22.02.53-.4.72-.68.49-.71,1.38-.76,1.88-.52.94.45,1.77,1.2,2.53,1.94.37.36.48.98.77,1.45.2.33.32.58.04.92-.46.55-.92,1.09-1.31,1.69-.37.57-1.24.98-1.06,1.74.3,1.27-.92.6-1.28,1.13-.76,1.1-1.34,2.53-2.97,2.73-.51.66-1.17,1.25-1.5,1.98-.41.92-1.44.59-1.98,1.26-1,1.22-1.64,2.87-3.43,3.28l-1.98,2.53-1.76,2.25c-1.24.04-1.69,1.08-2.37,1.85-.44.5-.67,1.18-1.56,1.29-.87.1-1.08,1.15-1.68,1.69-.88-.39-1.44,1.37-2.46.38-.08-.08-.55.24-.83.38-.38.19-1.13.08-1.19-.2-.13-.69-.02-1.55-.4-2.03-.41-.53-.45-1.03-.56-1.59-.14-.67-.08-1.58-.5-1.97-.82-.77.26-1.23.05-1.88-.28-.85.04-1.9-.84-2.56.16-.78-.74-1.15-.73-1.86.01-.84-.4-1.51-.75-2.23-.22-.46-.26-1.06.13-1.66.47-.71-.62-1.04-.64-1.8-.03-1.54-.34-3.07-.51-4.6-.05-.45-.05-.92.03-1.36.14-.76.47-1.49.51-2.25.04-.82-.11-1.66-.29-2.47-.2-.9.09-1.55.64-2.24.37-.47-.26-.76-.51-1.11-.19-.27-.07-.45.21-.46.24-.01.47-.05.71-.08-.53-.78.99-1.7-.18-2.47-.11-.07-.01-.63.13-.88.2-.34.55-.36.88-.09,1.06.88,2.47,1.51,2.25,3.29-.03.24.52.51.54.79.06.62.42,1.02.68,1.52.26.5.21,1.16.25,1.75.1,1.63.67,3.23.35,4.89-.32,1.66.25,3.25.34,4.88.06,1.03.21,2.05.86,2.92.1.14.21.28.31.42.18-.13.38-.25.53-.4.78-.79.55-1.9.82-2.85.34-1.18.46-2.38,1.29-3.43.51-.64.18-1.82,1.06-2.43.05-.03.03-.29-.04-.33-.94-.6-.36-1.38-.24-2.07.29-1.64.53-3.28.65-4.96.09-1.3.53-2.58.81-3.87-.61-1.46.79-2.54.72-3.91-.01-.2.28-.44.24-.6-.34-1.28.13-2.46.38-3.67.27-1.32.42-2.64.42-3.99,0-.54.06-1.19.37-1.59.69-.89-.55-1.12-.48-1.8.12-1.23.21-2.47.24-3.71.06-1.91.01-3.89-.5-5.09-.06-.14-.39-.18-.6-.24-.05-.01-.2.09-.2.14-.02.34.12.89-.04.99-1.34.86-.78,2.66-1.87,3.61.58,1.17-.94,1.74-.79,2.88.15,1.15-1.73,1.68-1.15,3.08-.95,1.22-1.88,2.45-2.87,3.64-.43.52-1.38.2-1.73.94-2.5.13-5.01,1.19-7.5-.09-1.27.38-1.95-.59-2.68-1.28-.27-.25,0-.92-.5-1.22-.53-.31-.87-.72-.88-1.4-.01-.71-.04-1.46-.28-2.11-.25-.68.94-1.2.08-1.87-.65-.51-.4-1.31-.49-1.98-.1-.77-.54-1.61.2-2.33-.1-.83-.24-1.65-.28-2.48-.02-.31.22-.63.25-.95.03-.46-.04-.92-.03-1.38,0-.33.04-.67.1-1,.48-2.38.96-4.75,1.44-7.12.04-.22.02-.46.11-.65.34-.71,1.22-1.07,1.11-2.1-.11-1.05.94-1.56,1.45-2.31.74-1.08,1.59-2.07,2.4-3.1.94-.13,1.89-.21,2.81-.4.28-.06.47-.48.75-.66.65-.42,1.29-.87,2-1.14.51-.19.97.4,1.62.34.72-.06,1.48.35,2.22.55.43.11,1.12-.2,1.07-.52-.2-1.28.66-2.38.57-3.6-.06-.81.1-1.56.17-2.34.07-.78.56-1.46.35-2.34-.17-.72-.07-1.61.22-2.3.34-.81.23-1.55.2-2.35-.03-.78.48-1.5.23-2.34-.17-.55-.36-1.3-.12-1.71.34-.6.26-1.11.18-1.67-.09-.67.04-1.44-.73-1.86.04-.57-.35-1.12.01-1.71.38-.62,1.42-1.25,2.06-1,.62.24,1.24.57,1.35,1.43.07.55-.15,1.21.43,1.64-.32.38-.28.71.12,1ZM10.48,32.22c-.48.88-1.7,1.41-1.26,2.72-1.04.63-.79,1.85-1.11,2.77-.39,1.11-.24,2.44-.32,3.67-.08,1.2-.68,2.36-.39,3.63.03.11.08.31.04.34-.72.49-.1,1.33-.53,1.91-.47.64,0,1.36.02,2.04.03.71.15,1.41.25,2.12.13.92.96,1.49,2,1.38.35-.04.7-.1,1.06-.12.67-.05.95-.31,1.07-1.05.19-1.19.11-2.5,1.17-3.43.21-.18.31-.63.27-.92-.09-.56.37-.82.52-1.23.24-.65,1.22-.11,1.26-.78.03-.48,0-.89.36-1.28.57-.6,1.13-1.22.8-2.16.59-.6,1.03-1.26.79-2.17.73-.73.14-1.56.17-2.34.05-1.01.15-2.02.12-3.03-.03-.94-.22-1.88-.32-2.82-.03-.27-.9-1.22-1.14-1.24-.89-.08-1.83.57-2.68-.2-.07-.06-.44.11-.58.26-.47.54-.89,1.11-1.33,1.67-.07.09-.16.18-.22.28Z"/>
      <path d="M22.61,5.12c.26.23.55.37.74-.02.05-.11-.19-.36-.3-.54l-.44.56Z"/>
      <path d="M23.05,4.56c.32-.38.28-.71-.12-1l-.44.56.56.44Z"/>
      <path d="M22.93,3.56c.23-.26.37-.55-.02-.74-.11-.05-.36.19-.54.3l.56.44Z"/>
    </g>
  </g>
</svg>