<?xml version="1.0" encoding="UTF-8"?>
<svg id="Layer_2" data-name="Layer 2" xmlns="http://www.w3.org/2000/svg" viewBox="0 0 37.83 73.1">
  <g id="Elements">
    <path d="M34.85,53.77c1.62,1.92.21,1.43-.43,2.39-.39.6-1.35.02-1.83.75-.39.58-1,1.01-1.52,1.49-.75.69-1.37,1.63-2.6,1.5-.6.57-1.2,1.15-1.8,1.72-1.29,1.23-2.72,2.35-3.82,3.73-1.01,1.26-2.66,1.29-3.71,2.34-.65-.14-1.1.16-1.53.61-.74.77-1.53,1.5-2.31,2.22-.95.87-1.92,1.71-2.89,2.57-1.31-.03-2.62-.03-3.92-.11-.3-.02-.6-.28-.87-.46-.19-.13-.51-.41-.47-.5.5-1.19-1.14-1.55-.99-2.44.27-1.65-.99-2.7-1.34-4.09-.08-.31-.54-.53-.57-.83-.11-.89.18-1.78-.63-2.62-.57-.59-.35-1.8-1.3-2.3.32-.86-.63-1.45-.47-2.3.13-.69-.16-1.3-.38-1.96-.18-.54-.22-1.09-.69-1.51-.16-.14-.32-.37-.33-.57-.02-.95.32-2.05-.07-2.8-.44-.84-.21-1.58-.35-2.35-.13-.73.41-1.03.8-1.45.31-.33.64-.32.9-.05.39.4.96.72.83,1.44-.11.59.33.5.57.34.39-.26.69-.65,1.05-.96.68-.6.76-.62,1.39.12.52.61,1.48,1.01,1.45,1.89-.02.75.53,1.2.57,1.94.06,1.07.94,2,.87,3.17,1.01.7.73,2.14,1.64,2.89.45.37.36.89.26,1.3-.23.98.69,1.68.58,2.64-.01.12.69.51.81.42.58-.4,1.18-.85,1.55-1.43.28-.43-.03-1.18.62-1.52-.14-2.46,1.22-4.5,1.93-6.72.22-.69.12-1.66,1.04-2.07.15-.07.25-.38.27-.58.1-1.28-.06-2.64.33-3.82.39-1.17.31-2.31.3-3.44,0-.77.85-1.44.53-1.87-.5-.68-.38-1.31-.39-1.99-.01-.71.13-1.44.01-2.13-.13-.78.77-1.42.51-1.88-.38-.68-.5-1.31-.37-1.97.15-.77-.78-1.19-.49-1.95-.83-.86-.25-1.99-.58-2.95-.29-.83-.54-1.68-.81-2.51-.58-1.78-1.26-3.53-1.72-5.33-.46-1.82-1.23-3.55-1.55-5.4-.12-.68-.79-.86-.98-1.39-.15-.41.19-.97-.31-1.29-.65-.42-.63-1.11-.8-1.73-.76.24-1.2-.6-1.92-.56-.21.01-.52-.06-.61-.2-.15-.25-.33-.76-.22-.87.57-.54.47-.91-.03-1.45-.72-.78-.7-.88-.14-1.39.58-.53,1.01-1.28,2.05-1.16.32.04.76-.5,1.05-.85.58-.69,1.09-.73,1.71-.06.11.12.46.01.69.04.7.07.71.06.74-.68.01-.24,0-.48.02-.71.02-.2.07-.41.11-.61.21.08.45.11.61.24.27.22.48.54.76.75.1.07.36-.04.52-.11.04-.02.04-.24,0-.33-.14-.3-.52-.74-.43-.85.33-.44.78-.8,1.23-1.12.08-.06.43.14.55.3.41.53.12,1.3.73,1.86.44.4.62,1.16.77,1.79.16.65.28,1.29.59,1.9.15.29.05.72.23.96.34.48.86.83,1.19,1.32.25.36-.2.94.28,1.3.62.46.6,1.16.82,1.81.35,1.04.73,2.07.98,3.15.25,1.07.51,2.18,1.05,3.12.51.88-.03,1.78.42,2.68.38.74.91,1.62.69,2.53-.21.88.61,1.51.46,2.3-.16.86.3,1.54.44,2.31.14.77-.05,1.54.43,2.32.38.62-.38,1.63.41,2.31.07.06.08.21.08.32,0,.94-.32,2.05.07,2.79.44.84.28,1.58.31,2.36.04.95.04,1.91-.07,2.85-.09.77-.43,1.51-.52,2.28-.11.94-.06,1.9-.08,2.85-.02.83-.04,1.66-.05,2.49-.01,1.03-.7,1.89-.63,2.99.06.98-.39,1.98-.5,2.99-.11,1.03-.56,1.91-1.02,2.8-.07.14.02.37.04.56.21-.07.45-.11.61-.23.28-.21.56-.72.77-.69.96.15,1.15-.34,1.13-1.11.95-.61,1.33-1.99,2.8-1.93.35.01.89-.44,1.05-.81.43-.95,1.56-.08,1.96-.85.46-.89,1.48-.5,2.09-1,.59-.48.65-.18.73.42.13.94.32.97,1.35.56.19-.08.42-.07.63-.09-.06.21-.11.43-.18.64-.09.3-.36.79-.27.87.91.79.15,1.2-2.52.77-2.17-1.09-2.12-1.27-2.13-1.44,0-.08-.13-.21-.21-.21-.07,0-.21.12-.22.2-.02.17,0,.36.06.53,0,.03.2,0,2.5.92ZM31.69,55c0,.13,0,.25,0,.36.17-.05.35-.08.5-.17.05-.03.01-.21.02-.32-.17.05-.34.09-.51.13Z"/>
  </g>
</svg>