<?xml version="1.0" encoding="UTF-8"?>
<svg id="Layer_2" data-name="Layer 2" xmlns="http://www.w3.org/2000/svg" viewBox="0 0 68.04 58.64">
  <g id="Elements">
    <g>
      <path d="M50.03,48.51c-.06-.05-.24-.06-.3,0s-.06.23-.01.3"/>
      <path d="M13.25,1.3c.57.02,1.15-.05,1.72-.08.53-1.09,1.79-.04,2.51-.88.47-.55,1.24-.34,1.9.02,1.23.66,3.1.93,4.28.32.94-.48,1.78-.24,2.68-.2.62,1.04,1.69.78,2.56.7,1.72-.16,2.71.83,3.28,2.11.58,1.3,1.22,2.59,1.76,3.91.04.1.23.18.23.26,0,.83-.06,1.66-.05,2.48,0,.79.93,1.29.65,2.24-.19.66-.09,1.42-.12,2.13-.03.83.06,1.69-.13,2.49-.2.85.77,1.13.68,1.88-.08.71-.07,1.42-.1,2.14-.04,1.34-.04,1.35.94,1.4.71.04,1.43.1,2.14.08.67-.02,1.42.36,1.97-.36.07-.09.17-.23.26-.23,1.27-.11,2.67.52,3.8-.16,1.18-.71,2.29-.16,3.42-.29.67-.07,1.44.32,1.94-.46,1.14-.21,2.26-.32,3.35.26,1.63.87,2.07,1.28,2.79,2.78.15.3.45.55.53.86.18.67.28,1.34-.3,1.93-.21.22-.45.77-.36.88,1.03,1.12.51,2.44.53,3.68.01,1.19-.08,2.38-.13,3.56,1.04.75.31,2.23,1.27,3.07.23.2-.03.91.04,1.37.05.32.3.35.48.15.16-.17.43-.29.51-.49.64-1.58,2.04-2.49,3.19-3.61l2.37-1.18c.36.01.78-.08,1.05.08.22.13.25.57.37.88.18.45.71.74,1.07.54.3-.17.52-.55.82-.61.27-.05.87.2.88.32.03,1.3,0,2.61-.1,3.9-.02.3-.27.62-.49.85-.56.6-1.45,1.07-1.66,1.77-.24.78-.86,1.07-1.23,1.62-.42.64-.91,1.3-1.1,2.02-.18.67-.7.91-1.08,1.32-.53.59-1.16,1.02-1.38,1.92-.18.71-1,1.24-1.24,1.95-.25.75-.24,1.63-.2,2.44.05.93-.34,1.54-1.03,2.08-.56.44-1.06.96-1.58,1.44-1.36-.3-1.64,1.7-3,1.39-.57.86-1.45.68-2.24.58-.99-.13-1.75-1.04-2.84-.92-.3-.47-.84-.72-.93-1.42-.21-1.61-.36-1.81-2.06-2.85-.62-.38-1.03-.79-1.34-1.45-.75-1.61-1.1-3.45-2.54-4.69-.41-1.85-2.08-2.75-3.12-4.11-.48-.63-.45-.91,0-1.49.81-1.06,2.14-1.27,3.13-2.01,1.13.5,2.29.97,3.06,2.01.83,1.12,2.15,1.84,2.63,3.24.39,1.15,1.08,2.17,1.4,3.35.03.1.14.21.24.26.34.15.44.03.37-.34-.16-.88.48-1.89-.41-2.66-.23-.2-.19-.32.1-.51.45-.28.67-.79.36-1.18-.4-.49-.66-.93-.54-1.57.15-.84-.96-1.28-.65-2.24.22-.67.14-1.41-.57-1.88.04-1.42.08-2.84.13-4.26.03-.81.23-1.67-.63-2.23.03-.71.06-1.42.07-2.14,0-.09-.14-.19-.23-.26-.09-.06-.2-.11-.3-.12-.36-.03-.87-.19-1.04-.02-.89.86-1.96.7-2.96.54-1-.16-1.74.39-2.6.6-.78.19-1.65-.02-2.48-.05l-2.85-.11c-.68.97-1.67.61-2.58.61-.59,0-1.08-.05-1.58-.54-.47-.46-.74.69-1.4.45-.41-.15-.91.03-1.27-.41-.53-.64-1.14-1.21-1.67-1.85-.2-.24-.35-.61-.34-.91.01-1.31.12-2.61.12-3.92,0-.56.45-.77.65-1.16.2-.39.35-1.1.14-1.33-.91-1.03-.67-2.22-.5-3.32.14-.94-.61-1.47-.65-2.24-.05-.83.05-1.66.08-2.49s.22-1.7.06-2.49c-.18-.86-.88-1.6-.63-2.59.02-.07-.34-.32-.54-.33-2.14-.11-4.28-.13-6.41-.29-1.11-.08-2.4.4-3.26-.78-.71-.04-1.41-.09-2.12-.12-1.66-.07-3.33-.13-4.99-.2-1.06,1.21-2.42.46-3.65.56-.84.07-1.55-.08-2.21-.76-.33-.34-1.32.23-1.56-.41-.2-.54-.33-1.05-.73-1.5-.26-.29.09-.88.54-1.05.3-.12.88-.27.87-.35C1.24.4,2.78.91,3.98.94"/>
    </g>
  </g>
</svg>