<?xml version="1.0" encoding="UTF-8"?>
<svg id="Layer_2" data-name="Layer 2" xmlns="http://www.w3.org/2000/svg" viewBox="0 0 36.52 71.7">
  <g id="Elements">
    <path d="M19.13,49.37c.05-1.4.43-2.72.37-4.01-.06-1.26-.08-2.46.37-3.64-.55-1.23.19-2.51-.15-3.73-.17-.63-.04-1.11.34-1.63.18-.24.31-.71.19-.94-.51-1.04.35-2.07-.04-3.05-.38-.94.44-1.77.05-2.71-.4-.97.5-2.03-.07-3.04.3-.9.22-1.78.04-2.7-.08-.4.21-.85.23-1.29.02-.35-.11-.7-.18-1.05-.27.18-.6.32-.8.56-.3.35-.49.8-1.05.81-.57,0-.47.4-.24.62.33.33.71.51.41,1.13-.55,1.13-1.79,1.82-1.79,3.33,0,1.2-1.28,1.93-1.68,3.01-.31.82-.17,1.78-.88,2.52-.57.59-.96,1.35-1.43,2.04.09,2.09-1.73,3.21-2.44,4.88-.44,1.03-1.44,1.07-2.11,1.65-.38.32-1.2.52-1.61.33-.83-.38-1.86.13-2.57-.78-.42-.54-1.12-.87-1.74-1.23-.55-.32-.8-.75-.91-1.39-.42-2.46-.83-4.93-1.39-7.36-.2-.85.34-1.59.1-2.34-.27-.82.09-1.58.05-2.35-.05-.81.55-1.53.2-2.33.67-.61-.15-1.59.64-2.25.53-.44.79-1.18,1.25-1.73.57-.69.7-1.38.51-2.27-.48-2.21-.96-4.43-1.21-6.67-.12-1.11-.97-1.81-1.11-2.85-.1-.76,0-1.1.77-1.26.79-.16,1.58-.25,2.18-.91.06-.07.54.06.59.19.31.89,1.16,1.41,1.55,2.13.38.7.7,1.72.28,2.7-.16.38-.02.9.06,1.35.19,1.17.72,2.38.56,3.5-.17,1.2.07,2.27.17,3.41.04.42-.23.86-.24,1.29-.01.78.42,1.49-.02,2.38-.25.51.14,1.38.33,2.07.35,1.25.23,2.5-.11,3.69-.15.51-.03.91.02,1.35.02.16.18.31.31.43.04.04.26-.03.3-.11.61-1.08,1.79-1.9,1.51-3.4-.02-.14.48-.47.78-.53.45-.09.49-.28.41-.66-.21-.94,1.14-1.51.6-2.6-.11-.21.53-.74.71-1.16.36-.83,1.35-1.29,1.17-2.46-.16-1.01.89-1.59,1.34-2.39.47-.83,1.06-1.58,1.6-2.36.4-.58-.19-1.34.43-1.95.5-.48.79-1.16,1.18-1.75-.46-1.26.51-2.06,1.17-2.75.76-.8.35-1.78.82-2.56.41-.68.95-1.22.81-2.21-.09-.66.96-1.27.58-2.23-.08-.19.32-.59.55-.87.13-.16.37-.39.52-.37,1.09.17,1.78-1.11,2.8-.8.51.15.93-.06,1.33.06.16.05.18.64.21,1,.06.62.22,1.27.87,1.38.8.12.21,1.9,1.55,1.2.08.19.18.37.22.56.23,1.17.3,2.39.7,3.49.38,1.07-.41,2.04,0,3.06.16.42.03.86-.06,1.33-.25,1.33-.4,2.7.03,4.06.09.29.07.76-.11.96-.55.61-.47,1.23-.39,1.96.13,1.13.92,2.23.2,3.4.2,1.17.69,2.37.52,3.49-.2,1.34.39,2.7-.21,3.99.29.79-.55,1.54-.08,2.34.41.69-.35,1.35-.12,1.98.58,1.61-.5,3.11-.21,4.7.05.25-.37.58-.57.88-.33-.32-.63-.19-.91.06-.58.54.07,1.3-.41,1.96-.34.47.25.97,1.04.84.46-.08,1.32.13.91-.91-.06-.16.07-.45.19-.62.36-.49.61-.95.44-1.61-.06-.22.25-.72.48-.78,1-.28,2.17-.18,2.59-1.47.66-.15,1.24-.43,1.99-.09,1.05.48,1.3,1.54,1.97,2.28.13.14.22.48.15.61-.47.82-.33,1.75-.41,2.61-.07.76-.02,1.55-.06,2.34-.03.58-.46,1.1-.27,1.63.31.87-.58,1.26-.65,1.89-.07.56.19,1.14-.31,1.63-.16.16-.36.41-.34.59.31,2.06-1.14,3.84-.97,5.86.08.94-1.31,1.52-.57,2.58-1.16.84-.3,2.54-1.45,3.41-.21.16-.27.61-.3.93-.11,1.36-.26,2.7-1.24,3.78.3,1.62-1.02,2.5-1.66,3.69-.27.51-.78.43-1.21.57-.69.22-1.27-.49-2-.16-1.2.55-1.96-.39-2.82-.94-.05-.72-.74-1.16-.87-1.77-.22-1.07-.48-2.02-1.54-2.55-.61-1.67-1.63-3.13-2.42-4.71-.35-.7-.83-1.3-.96-2.15-.11-.73-.52-1.49-.99-2.08-.41-.52-1.11-.72-1.25-1.58-.07-.46-.49-1.01-.78-1.42-.57-.8-.69-2-1.87-2.34-.3-.09-1.54-2.22-1.53-2.52.06-1.1-.02-2.21.64-3.24.59-.92,1.32-1.17,2.33-1.03,2.07.27,2.2.37,4.52,3.09.37.44.96.69,1.58,1.11.04.03-.05-.09-.13-.07-.07.01-.17.16-.17.25,0,.29,0,.64.46.43.06-.03-.01-.34-.15-.6Z"/>
  </g>
</svg>